:SAMPLES-PER-SECOND 30
:FULLY-SPECIFIED
:DEGREES
304
root  95.6819 37.8054 -29.9101 19.9588 -85.0186 9.83508
RightUpLeg  -59.795 -23.4374 17.998
RightLeg  27.0769 1.5813 0.646209
RightFoot  -2.74027 0.121419 -1.85591
RightToes  0.000482159 0.542163 -0.142577
Spine  59.5927 -3.00322 10.9628
Spine1  7.9537 3.25569 0.305962
HEad  -35.38 -11.6848 2.17881
LeftShoulder1  13.0826 -28.8005 -34.1612
LeftArm  -34.9163 -61.4464 -12.8259
LeftForeArm  17.4137 1.27861 -3.04912
LeftHand  -0.25398 0.0180481 5.50724
RightShoulder  4.43443 11.7271 22.88
RightArm  -40.2724 63.4848 2.45605
RightForeArm  0.351907 -5.11014 5.23782
RightHand  -1.27939 6.8579 -12.4961
LeftUpLeg  -58.4441 21.5539 -23.228
LeftLeg  26.3778 3.25332 2.09614
LeftFoot  -3.22117 -0.346473 5.15477
LeftToes  1.06247e-005 4.65854e-005 -8.18501e-006
305
root  95.6319 37.5698 -30.1735 24.139 -84.6085 8.39235
RightUpLeg  -63.3209 -22.0512 19.353
RightLeg  28.4234 0.975334 0.333286
RightFoot  -3.30717 0.156038 -2.53842
RightToes  0.000482159 0.542163 -0.142577
Spine  62.4384 -2.69434 11.3372
Spine1  5.53209 4.35864 0.0727533
HEad  -37.9597 -11.771 2.89904
LeftShoulder1  14.739 -30.5299 -36.8206
LeftArm  -40.3146 -64.7837 -6.93159
LeftForeArm  15.4457 1.24045 -3.00954
LeftHand  -0.25398 0.0180481 5.50724
RightShoulder  4.90862 12.2384 25.0397
RightArm  -46.8892 64.7038 -8.87644
RightForeArm  -1.58392 -4.99682 6.15734
RightHand  -1.42855 8.68499 -12.1957
LeftUpLeg  -62.3593 21.3847 -24.8882
LeftLeg  27.5451 1.99681 1.47741
LeftFoot  -3.70096 -0.370277 5.87511
LeftToes  1.06247e-005 4.65854e-005 -8.18501e-006
306
root  95.5485 37.3285 -30.4029 30.1338 -84.085 4.9748
RightUpLeg  -66.4688 -20.315 20.3882
RightLeg  29.8239 -0.0783748 -0.2934
RightFoot  -3.6461 0.23525 -3.86225
RightToes  0.000482159 0.542163 -0.142577
Spine  65.1807 -2.62249 11.7395
Spine1  2.11015 5.28606 -0.69231
HEad  -36.7662 -12.8026 2.2705
LeftShoulder1  16.7043 -32.0918 -40.2941
LeftArm  -45.7081 -66.3838 -0.760604
LeftForeArm  13.4124 0.543929 -2.99492
LeftHand  -0.25398 0.0180481 5.50724
RightShoulder  5.27156 12.7292 26.4035
RightArm  -51.3868 64.7766 -15.5238
RightForeArm  -3.87122 -4.62636 6.5626
RightHand  -1.51511 10.1018 -11.8002
LeftUpLeg  -65.9277 20.2475 -25.1851
LeftLeg  29.076 2.06434 1.59383
LeftFoot  -4.23074 -0.340831 5.88825
LeftToes  1.06247e-005 4.65854e-005 -8.18501e-006
307
root  95.4109 37.1142 -30.6206 35.653 -83.2828 1.45553
RightUpLeg  -68.9264 -18.8922 21.2811
RightLeg  31.2926 -1.2186 -1.04766
RightFoot  -4.03343 0.337034 -5.71325
RightToes  0.000482159 0.542163 -0.142577
Spine  66.9038 -2.76284 11.6972
Spine1  2.27819 5.32618 -0.875554
HEad  -37.7246 -12.5881 1.75391
LeftShoulder1  16.4971 -33.3325 -38.1778
LeftArm  -55.1454 -67.7461 7.63698
LeftForeArm  9.62856 -0.931566 -1.9982
LeftHand  -0.25398 0.0180481 5.50724
RightShoulder  4.73751 12.6464 23.1103
RightArm  -57.7899 65.6374 -18.4558
RightForeArm  -6.99125 -3.18041 5.5875
RightHand  -1.42092 10.6042 -10.777
LeftUpLeg  -68.7158 19.0213 -24.6363
LeftLeg  30.7285 2.35023 1.85975
LeftFoot  -4.42192 -0.292028 5.26804
LeftToes  1.06247e-005 4.65854e-005 -8.18501e-006
308
root  95.2144 36.9718 -30.7884 37.3517 -82.5204 0.69886
RightUpLeg  -70.2941 -18.5563 21.9406
RightLeg  32.714 -1.64852 -1.39222
RightFoot  -4.91466 0.326824 -6.32385
RightToes  0.000482159 0.542163 -0.142577
Spine  69.2545 -2.84929 11.5824
Spine1  2.38164 5.47381 -1.14673
HEad  -39.4948 -12.4282 2.46668
LeftShoulder1  15.8401 -34.9496 -34.617
LeftArm  -63.0398 -67.8197 14.1096
LeftForeArm  6.66768 -2.77207 -0.909088
LeftHand  -0.25398 0.0180481 5.50724
RightShoulder  4.66314 11.9893 23.9322
RightArm  -65.2497 66.2414 -26.7549
RightForeArm  -12.9771 -0.705276 6.06445
RightHand  -1.48099 10.5311 -11.2513
LeftUpLeg  -69.9906 18.3991 -24.172
LeftLeg  31.9228 2.26563 1.87595
LeftFoot  -4.71572 -0.269059 5.14065
LeftToes  1.06247e-005 4.65854e-005 -8.18501e-006
309
root  94.9932 36.8702 -30.8815 35.5994 -81.7805 2.91213
RightUpLeg  -71.2821 -19.195 22.365
RightLeg  34.1883 -1.39952 -1.28469
RightFoot  -6.52977 0.140035 -4.40811
RightToes  0.000482159 0.542163 -0.142577
Spine  70.98 -3.1127 10.9807
Spine1  5.19383 5.06519 -1.01857
HEad  -42.8717 -11.4459 3.69834
LeftShoulder1  13.2919 -35.757 -27.2106
LeftArm  -73.0801 -67.3764 21.8579
LeftForeArm  2.72232 -5.16881 0.654175
LeftHand  -0.25398 0.0180481 5.50724
RightShoulder  4.50281 10.9962 24.9225
RightArm  -77.0372 67.0847 -39.908
RightForeArm  -21.2429 1.97512 6.83448
RightHand  -1.85754 10.9972 -13.5732
LeftUpLeg  -70.3254 17.868 -24.0673
LeftLeg  32.6048 2.08704 1.79449
LeftFoot  -5.25469 -0.261802 5.51623
LeftToes  1.06247e-005 4.65854e-005 -8.18501e-006
310
root  94.7906 36.7376 -30.9409 36.7028 -80.7207 2.91518
RightUpLeg  -72.9193 -19.4201 23.2506
RightLeg  35.5205 -1.51844 -1.43404
RightFoot  -7.50669 0.0788041 -3.89516
RightToes  0.000482159 0.542163 -0.142577
Spine  72.4704 -3.6129 11.3967
Spine1  4.28526 4.84222 -0.978025
HEad  -42.3984 -11.3632 3.36077
LeftShoulder1  13.2093 -35.6524 -27.0428
LeftArm  -75.6976 -66.8769 24.9137
LeftForeArm  2.14756 -7.90893 0.368532
LeftHand  -0.25398 0.0180481 5.50724
RightShoulder  4.59992 11.0784 25.4278
RightArm  -79.4981 66.5816 -42.5617
RightForeArm  -25.5872 4.60174 7.19126
RightHand  -2.19602 12.1163 -14.9934
LeftUpLeg  -71.4376 16.9645 -23.8447
LeftLeg  33.313 1.99051 1.76532
LeftFoot  -5.70381 -0.244995 5.66786
LeftToes  1.06247e-005 4.65854e-005 -8.18501e-006
